Coordinates
version=1
nRows=6
nColumns=63
inDegrees=yes

Units are S.I. units (second, meters, Newtons, ...)
If the header above contains a line with 'inDegrees', this indicates whether rotational values are in degrees (yes) or radians (no).

endheader
time	pelvis_tilt	pelvis_list	pelvis_rotation	pelvis_tx	pelvis_ty	pelvis_tz	hip_flexion_r	hip_adduction_r	hip_rotation_r	knee_angle_r	knee_angle_r_beta	ankle_angle_r	subtalar_angle_r	mtp_angle_r	hip_flexion_l	hip_adduction_l	hip_rotation_l	knee_angle_l	knee_angle_l_beta	ankle_angle_l	subtalar_angle_l	mtp_angle_l	L5_S1_Flex_Ext	L5_S1_Lat_Bending	L5_S1_axial_rotation	L4_L5_Flex_Ext	L4_L5_Lat_Bending	L4_L5_axial_rotation	L3_L4_Flex_Ext	L3_L4_Lat_Bending	L3_L4_axial_rotation	L2_L3_Flex_Ext	L2_L3_Lat_Bending	L2_L3_axial_rotation	L1_L2_Flex_Ext	L1_L2_Lat_Bending	L1_L2_axial_rotation	L1_T12_Flex_Ext	L1_T12_Lat_Bending	L1_T12_axial_rotation	Abs_r3	Abs_r2	Abs_r1	Abs_t1	Abs_t2	neck_flexion	neck_bending	neck_rotation	arm_flex_r	arm_add_r	arm_rot_r	elbow_flex_r	pro_sup_r	wrist_flex_r	wrist_dev_r	arm_flex_l	arm_add_l	arm_rot_l	elbow_flex_l	pro_sup_l	wrist_flex_l	wrist_dev_l
      0.00000000	      2.22914612	     -4.92984792	     94.80359513	      0.08529281	      0.71042558	      0.72384190	     -9.22750560	      1.90996458	      6.01641273	      1.92412762	      0.03358236	     26.29331848	     -9.88184025	      0.00000000	     -4.27371527	     -1.72080111	     -8.26150325	      9.08844891	      0.15862336	     35.45636537	      8.27762193	      0.00000000	     -0.09953255	     -0.00676436	      1.12881058	     -0.18484189	     -0.00899659	      1.19936124	     -0.16352202	     -0.01644686	      1.19936124	     -0.11375575	     -0.01644686	      0.98770926	     -0.09242592	     -0.01379388	      0.91715860	     -0.05687290	     -0.01047799	      0.84660794	     -0.71095102	     -0.07651975	      6.27810580	      0.00000000	      0.00000000	     12.85536345	      2.18289560	    -11.08376677	     -4.82041936	    -10.36940164	     37.70170279	     69.57101580	     24.09292961	     -4.62453415	      4.76273589	     18.34117945	    -12.22677765	     67.56866858	     64.13465367	     89.21126373	      1.92301394	      7.22908326
      0.01694915	      1.75442709	     -4.96146459	     94.33275224	      0.08602741	      0.71069833	      0.72305051	     -9.36805719	      1.41678740	      9.43602508	      1.93635990	      0.03379586	     24.87500145	    -13.99672841	      0.00000000	     -4.41076593	     -1.11880962	     -8.38655545	      9.01857209	      0.15740378	     34.89477715	      7.36126924	      0.00000000	     -0.09172869	     -0.06729336	      1.22069310	     -0.17034935	     -0.08950016	      1.29698642	     -0.15070106	     -0.16361707	      1.29698642	     -0.10483672	     -0.16361707	      1.06810646	     -0.08517926	     -0.13722461	      0.99181314	     -0.05241377	     -0.10423741	      0.91551982	     -0.65520885	     -0.76123590	      6.78912881	      0.00000000	      0.00000000	     12.87528661	      2.17318608	    -11.49036334	     -4.19725491	    -10.44467402	     38.73644285	     69.78167027	     17.60447053	     -7.06790563	      4.47160895	     18.43775421	    -12.52544730	     68.11139459	     64.46333027	     89.22708983	      2.21319213	      7.69646437
      0.03389831	      1.40661887	     -4.92775122	     93.73578342	      0.08685905	      0.71100424	      0.72238819	     -9.44689224	      0.99130991	     10.47383606	      2.08359896	      0.03636566	     24.52627769	    -14.41308939	      0.00000000	     -4.63882169	     -0.73114370	     -9.79608766	      8.92715472	      0.15580824	     34.67860895	      8.16813641	      0.00000000	     -0.09551022	     -0.10996244	      1.32777808	     -0.17737203	     -0.14625004	      1.41076421	     -0.15691374	     -0.26736267	      1.41076421	     -0.10915863	     -0.26736267	      1.16180582	     -0.08869079	     -0.22423540	      1.07881969	     -0.05457454	     -0.17033181	      0.99583356	     -0.68221994	     -1.24391708	      7.38470334	      0.00000000	      0.00000000	     12.88217014	      2.25165510	    -11.59794727	     -3.77219698	    -10.43593165	     38.96975961	     69.71895919	     16.45179009	     -8.09173836	      4.42762231	     18.69071173	    -12.67763887	     68.69779067	     64.68732005	     89.22830107	      2.19198132	      8.41108793
      0.05084746	      1.13639652	     -4.91050759	     93.41309720	      0.08721987	      0.71118661	      0.72191254	     -9.52078727	      0.68292720	     11.29614746	      2.15189109	      0.03755758	     24.19395261	    -14.96153675	      0.00000000	     -4.75709268	     -0.31749407	     -9.14904013	      8.87968630	      0.15497976	     34.29026977	      6.74918396	      0.00000000	     -0.09656165	     -0.14156253	      1.37669538	     -0.17932464	     -0.18827817	      1.46273884	     -0.15864113	     -0.34419514	      1.46273884	     -0.11036031	     -0.34419514	      1.20460845	     -0.08966715	     -0.28867432	      1.11856499	     -0.05517533	     -0.21928036	      1.03252153	     -0.68973020	     -1.60138368	      7.65676667	      0.00000000	      0.00000000	     12.83768175	      2.30321952	    -11.57018224	     -3.52820578	    -10.35417383	     38.61427402	     69.52919599	     18.23058278	     -8.20230455	      5.05360516	     18.96604823	    -12.72420942	     69.11063704	     64.74478398	     89.21587260	      2.24294699	      8.99587765
      0.06779661	      0.88382331	     -4.84528500	     92.87602980	      0.08820873	      0.71139954	      0.72148402	     -9.58507485	      0.37165880	     11.87781074	      2.23869043	      0.03907252	     24.17356359	    -14.85246254	      0.00000000	     -4.95212002	      0.00760332	     -9.56618052	      8.82342770	      0.15399786	     34.13779497	      6.51576920	      0.00000000	     -0.10483627	     -0.17386907	      1.45457069	     -0.19469143	     -0.23124587	      1.54548136	     -0.17223550	     -0.42274526	      1.54548136	     -0.11981737	     -0.42274526	      1.27274935	     -0.09735096	     -0.35455381	      1.18183868	     -0.05990344	     -0.26932319	      1.09092802	     -0.74883496	     -1.96684172	      8.08988580	      0.00000000	      0.00000000	     12.67942835	      2.44297215	    -11.40454606	     -3.27589009	    -10.26446937	     38.41342358	     69.43178998	     19.25020755	     -8.16046367	      5.05093883	     19.40498051	    -12.83398736	     69.63253193	     64.85476519	     89.18894255	      2.17908688	      9.76328626
      0.08474576	      0.78616133	     -4.85060071	     92.80418557	      0.08795742	      0.71159897	      0.72137725	     -9.58948487	      0.24833032	     12.05016392	      2.26150403	      0.03947069	     24.11539838	    -14.80183369	      0.00000000	     -4.95587305	      0.14553551	     -9.52501425	      8.87616447	      0.15491829	     34.06193426	      6.54603563	      0.00000000	     -0.10317137	     -0.18263668	      1.44954288	     -0.19159955	     -0.24290679	      1.54013931	     -0.16950025	     -0.44406282	      1.54013931	     -0.11791456	     -0.44406282	      1.26835002	     -0.09580493	     -0.37243272	      1.17775359	     -0.05895212	     -0.28290422	      1.08715716	     -0.73694278	     -2.06602266	      8.06192265	      0.00000000	      0.00000000	     12.64636395	      2.48045941	    -11.35879853	     -3.08176298	    -10.28987848	     38.14688284	     69.44606459	     19.70233525	     -8.09210564	      5.01575785	     19.52801295	    -12.60087632	     69.53083196	     64.53337896	     89.16218091	      2.09035436	     10.03147683
